{
	"patcher" : 	{
		"fileversion" : 1,
		"appversion" : 		{
			"major" : 8,
			"minor" : 3,
			"revision" : 0,
			"architecture" : "x64",
			"modernui" : 1
		}
,
		"classnamespace" : "box",
		"rect" : [ 67.0, 89.0, 945.0, 649.0 ],
		"bglocked" : 0,
		"openinpresentation" : 0,
		"default_fontsize" : 12.0,
		"default_fontface" : 0,
		"default_fontname" : "Arial",
		"gridonopen" : 1,
		"gridsize" : [ 15.0, 15.0 ],
		"gridsnaponopen" : 1,
		"objectsnaponopen" : 1,
		"statusbarvisible" : 2,
		"toolbarvisible" : 1,
		"lefttoolbarpinned" : 0,
		"toptoolbarpinned" : 0,
		"righttoolbarpinned" : 0,
		"bottomtoolbarpinned" : 0,
		"toolbars_unpinned_last_save" : 0,
		"tallnewobj" : 0,
		"boxanimatetime" : 200,
		"enablehscroll" : 1,
		"enablevscroll" : 1,
		"devicewidth" : 0.0,
		"description" : "",
		"digest" : "",
		"tags" : "",
		"style" : "",
		"subpatcher_template" : "",
		"assistshowspatchername" : 0,
		"boxes" : [ 			{
				"box" : 				{
					"id" : "obj-22",
					"maxclass" : "newobj",
					"numinlets" : 1,
					"numoutlets" : 1,
					"outlettype" : [ "bang" ],
					"patching_rect" : [ 373.0, 309.0, 22.0, 22.0 ],
					"text" : "t b"
				}

			}
, 			{
				"box" : 				{
					"activebgcolor" : [ 0.0, 0.0, 0.0, 1.0 ],
					"activelinecolor" : [ 1.0, 1.0, 1.0, 1.0 ],
					"id" : "obj-13",
					"maxclass" : "live.scope~",
					"numinlets" : 2,
					"numoutlets" : 1,
					"outlettype" : [ "bang" ],
					"patching_rect" : [ 111.0, 424.0, 478.0, 207.0 ],
					"range" : [ -2.0, 2.0 ],
					"rounded" : 0.0
				}

			}
, 			{
				"box" : 				{
					"id" : "obj-14",
					"local" : 1,
					"maxclass" : "ezdac~",
					"numinlets" : 2,
					"numoutlets" : 0,
					"patching_rect" : [ 56.0, 587.0, 45.0, 45.0 ]
				}

			}
, 			{
				"box" : 				{
					"id" : "obj-35",
					"lastchannelcount" : 0,
					"maxclass" : "live.gain~",
					"numinlets" : 2,
					"numoutlets" : 5,
					"outlettype" : [ "signal", "signal", "", "float", "list" ],
					"parameter_enable" : 1,
					"patching_rect" : [ 56.0, 424.0, 45.0, 151.0 ],
					"saved_attribute_attributes" : 					{
						"valueof" : 						{
							"parameter_initial" : [ -70.0 ],
							"parameter_initial_enable" : 1,
							"parameter_longname" : "live.gain~[1]",
							"parameter_mmax" : 6.0,
							"parameter_mmin" : -70.0,
							"parameter_shortname" : "live.gain~",
							"parameter_type" : 0,
							"parameter_unitstyle" : 4
						}

					}
,
					"varname" : "live.gain~[1]"
				}

			}
, 			{
				"box" : 				{
					"bgcolor" : [ 0.0, 0.0, 0.0, 1.0 ],
					"domain" : [ 0.0, 24000.0 ],
					"fgcolor" : [ 1.0, 1.0, 1.0, 1.0 ],
					"id" : "obj-15",
					"maxclass" : "spectroscope~",
					"numinlets" : 2,
					"numoutlets" : 1,
					"outlettype" : [ "" ],
					"patching_rect" : [ 592.5, 424.0, 342.0, 207.0 ]
				}

			}
, 			{
				"box" : 				{
					"id" : "obj-23",
					"maxclass" : "newobj",
					"numinlets" : 2,
					"numoutlets" : 1,
					"outlettype" : [ "int" ],
					"patching_rect" : [ 56.0, 185.0, 32.0, 22.0 ],
					"text" : "+ 40"
				}

			}
, 			{
				"box" : 				{
					"id" : "obj-30",
					"maxclass" : "number",
					"numinlets" : 1,
					"numoutlets" : 2,
					"outlettype" : [ "", "bang" ],
					"parameter_enable" : 0,
					"patching_rect" : [ 156.0, 43.0, 50.0, 22.0 ]
				}

			}
, 			{
				"box" : 				{
					"id" : "obj-2",
					"maxclass" : "button",
					"numinlets" : 1,
					"numoutlets" : 1,
					"outlettype" : [ "bang" ],
					"parameter_enable" : 0,
					"patching_rect" : [ 56.0, 102.0, 24.0, 24.0 ]
				}

			}
, 			{
				"box" : 				{
					"id" : "obj-1",
					"maxclass" : "toggle",
					"numinlets" : 1,
					"numoutlets" : 1,
					"outlettype" : [ "int" ],
					"parameter_enable" : 0,
					"patching_rect" : [ 56.0, 42.0, 24.0, 24.0 ]
				}

			}
, 			{
				"box" : 				{
					"id" : "obj-10",
					"maxclass" : "newobj",
					"numinlets" : 2,
					"numoutlets" : 1,
					"outlettype" : [ "int" ],
					"patching_rect" : [ 56.0, 158.0, 29.5, 22.0 ],
					"text" : "* 5"
				}

			}
, 			{
				"box" : 				{
					"id" : "obj-18",
					"maxclass" : "newobj",
					"numinlets" : 5,
					"numoutlets" : 4,
					"outlettype" : [ "int", "", "", "int" ],
					"patching_rect" : [ 56.0, 134.0, 61.0, 22.0 ],
					"text" : "counter 3"
				}

			}
, 			{
				"box" : 				{
					"id" : "obj-11",
					"maxclass" : "newobj",
					"numinlets" : 2,
					"numoutlets" : 1,
					"outlettype" : [ "bang" ],
					"patching_rect" : [ 56.0, 72.0, 119.0, 22.0 ],
					"text" : "metro 300 @active 1"
				}

			}
, 			{
				"box" : 				{
					"id" : "obj-12",
					"maxclass" : "newobj",
					"numinlets" : 1,
					"numoutlets" : 1,
					"outlettype" : [ "signal" ],
					"patching_rect" : [ 373.0, 338.0, 39.0, 22.0 ],
					"text" : "click~"
				}

			}
, 			{
				"box" : 				{
					"id" : "obj-5",
					"maxclass" : "kslider",
					"numinlets" : 2,
					"numoutlets" : 2,
					"outlettype" : [ "int", "int" ],
					"parameter_enable" : 0,
					"patching_rect" : [ 56.0, 215.0, 336.0, 53.0 ]
				}

			}
, 			{
				"box" : 				{
					"id" : "obj-4",
					"maxclass" : "newobj",
					"numinlets" : 1,
					"numoutlets" : 1,
					"outlettype" : [ "signal" ],
					"patcher" : 					{
						"fileversion" : 1,
						"appversion" : 						{
							"major" : 8,
							"minor" : 3,
							"revision" : 0,
							"architecture" : "x64",
							"modernui" : 1
						}
,
						"classnamespace" : "dsp.gen",
						"rect" : [ 177.0, 101.0, 622.0, 546.0 ],
						"bglocked" : 0,
						"openinpresentation" : 0,
						"default_fontsize" : 12.0,
						"default_fontface" : 0,
						"default_fontname" : "Arial",
						"gridonopen" : 1,
						"gridsize" : [ 15.0, 15.0 ],
						"gridsnaponopen" : 1,
						"objectsnaponopen" : 1,
						"statusbarvisible" : 2,
						"toolbarvisible" : 1,
						"lefttoolbarpinned" : 0,
						"toptoolbarpinned" : 0,
						"righttoolbarpinned" : 0,
						"bottomtoolbarpinned" : 0,
						"toolbars_unpinned_last_save" : 0,
						"tallnewobj" : 0,
						"boxanimatetime" : 200,
						"enablehscroll" : 1,
						"enablevscroll" : 1,
						"devicewidth" : 0.0,
						"description" : "",
						"digest" : "",
						"tags" : "",
						"style" : "",
						"subpatcher_template" : "",
						"assistshowspatchername" : 0,
						"boxes" : [ 							{
								"box" : 								{
									"id" : "obj-61",
									"maxclass" : "newobj",
									"numinlets" : 1,
									"numoutlets" : 1,
									"outlettype" : [ "" ],
									"patching_rect" : [ 368.0, 83.5, 78.0, 22.0 ],
									"text" : "!/ samplerate"
								}

							}
, 							{
								"box" : 								{
									"id" : "obj-60",
									"maxclass" : "newobj",
									"numinlets" : 1,
									"numoutlets" : 1,
									"outlettype" : [ "" ],
									"patching_rect" : [ 254.5, 109.0, 41.0, 22.0 ],
									"text" : "max 1"
								}

							}
, 							{
								"box" : 								{
									"id" : "obj-59",
									"maxclass" : "comment",
									"numinlets" : 1,
									"numoutlets" : 0,
									"patching_rect" : [ 135.0, 460.0, 84.0, 20.0 ],
									"text" : "inversion",
									"textjustification" : 2
								}

							}
, 							{
								"box" : 								{
									"id" : "obj-58",
									"maxclass" : "comment",
									"numinlets" : 1,
									"numoutlets" : 0,
									"patching_rect" : [ 135.0, 400.0, 84.0, 20.0 ],
									"text" : "damping filter",
									"textjustification" : 2
								}

							}
, 							{
								"box" : 								{
									"id" : "obj-57",
									"linecount" : 3,
									"maxclass" : "comment",
									"numinlets" : 1,
									"numoutlets" : 0,
									"patching_rect" : [ 135.0, 340.0, 84.0, 47.0 ],
									"text" : "unfiltered fractional delay",
									"textjustification" : 2
								}

							}
, 							{
								"box" : 								{
									"id" : "obj-56",
									"maxclass" : "comment",
									"numinlets" : 1,
									"numoutlets" : 0,
									"patching_rect" : [ 135.0, 297.0, 84.0, 20.0 ],
									"text" : "saturation",
									"textjustification" : 2
								}

							}
, 							{
								"box" : 								{
									"id" : "obj-55",
									"maxclass" : "comment",
									"numinlets" : 1,
									"numoutlets" : 0,
									"patching_rect" : [ 135.0, 265.0, 84.0, 20.0 ],
									"text" : "dc block",
									"textjustification" : 2
								}

							}
, 							{
								"box" : 								{
									"id" : "obj-54",
									"linecount" : 4,
									"maxclass" : "comment",
									"numinlets" : 1,
									"numoutlets" : 0,
									"patching_rect" : [ 287.0, 150.0, 78.0, 60.0 ],
									"text" : "pitch independent feedback decay"
								}

							}
, 							{
								"box" : 								{
									"id" : "obj-53",
									"maxclass" : "comment",
									"numinlets" : 1,
									"numoutlets" : 0,
									"patching_rect" : [ 80.5, 180.0, 51.0, 20.0 ],
									"text" : "prefilter"
								}

							}
, 							{
								"box" : 								{
									"id" : "obj-48",
									"maxclass" : "newobj",
									"numinlets" : 0,
									"numoutlets" : 1,
									"outlettype" : [ "" ],
									"patching_rect" : [ 163.0, 128.0, 35.0, 22.0 ],
									"text" : "3000"
								}

							}
, 							{
								"box" : 								{
									"id" : "obj-47",
									"maxclass" : "newobj",
									"numinlets" : 2,
									"numoutlets" : 3,
									"outlettype" : [ "", "", "" ],
									"patching_rect" : [ 69.0, 154.0, 113.0, 22.0 ],
									"text" : "go.onepole.hz"
								}

							}
, 							{
								"box" : 								{
									"id" : "obj-46",
									"maxclass" : "newobj",
									"numinlets" : 0,
									"numoutlets" : 1,
									"outlettype" : [ "" ],
									"patching_rect" : [ 138.5, 103.0, 37.0, 22.0 ],
									"text" : "noise"
								}

							}
, 							{
								"box" : 								{
									"id" : "obj-45",
									"maxclass" : "newobj",
									"numinlets" : 2,
									"numoutlets" : 1,
									"outlettype" : [ "" ],
									"patching_rect" : [ 69.0, 128.0, 88.5, 22.0 ],
									"text" : "*"
								}

							}
, 							{
								"box" : 								{
									"id" : "obj-44",
									"maxclass" : "newobj",
									"numinlets" : 1,
									"numoutlets" : 1,
									"outlettype" : [ "" ],
									"patching_rect" : [ 69.5, 103.0, 67.0, 22.0 ],
									"text" : "slide 1 100"
								}

							}
, 							{
								"box" : 								{
									"id" : "obj-43",
									"maxclass" : "newobj",
									"numinlets" : 1,
									"numoutlets" : 1,
									"outlettype" : [ "" ],
									"patching_rect" : [ 69.5, 79.0, 55.0, 22.0 ],
									"text" : "go.zerox"
								}

							}
, 							{
								"box" : 								{
									"id" : "obj-42",
									"maxclass" : "newobj",
									"numinlets" : 0,
									"numoutlets" : 1,
									"outlettype" : [ "" ],
									"patching_rect" : [ 368.0, 29.0, 108.0, 22.0 ],
									"text" : "param midinote 48"
								}

							}
, 							{
								"box" : 								{
									"id" : "obj-41",
									"maxclass" : "newobj",
									"numinlets" : 1,
									"numoutlets" : 1,
									"outlettype" : [ "" ],
									"patching_rect" : [ 368.0, 109.0, 41.0, 22.0 ],
									"text" : "max 1"
								}

							}
, 							{
								"box" : 								{
									"id" : "obj-40",
									"maxclass" : "newobj",
									"numinlets" : 2,
									"numoutlets" : 1,
									"outlettype" : [ "" ],
									"patching_rect" : [ 368.0, 57.0, 32.0, 22.0 ],
									"text" : "mtof"
								}

							}
, 							{
								"box" : 								{
									"id" : "obj-39",
									"maxclass" : "newobj",
									"numinlets" : 1,
									"numoutlets" : 0,
									"patching_rect" : [ 69.0, 504.0, 74.0, 22.0 ],
									"text" : "out 1 exciter"
								}

							}
, 							{
								"box" : 								{
									"id" : "obj-37",
									"maxclass" : "newobj",
									"numinlets" : 1,
									"numoutlets" : 1,
									"outlettype" : [ "" ],
									"patching_rect" : [ 254.5, 83.5, 76.0, 22.0 ],
									"text" : "* samplerate"
								}

							}
, 							{
								"box" : 								{
									"id" : "obj-38",
									"linecount" : 3,
									"maxclass" : "newobj",
									"numinlets" : 0,
									"numoutlets" : 1,
									"outlettype" : [ "" ],
									"patching_rect" : [ 254.5, 29.0, 112.0, 49.0 ],
									"text" : "param decay_seconds 10 @min 0"
								}

							}
, 							{
								"box" : 								{
									"id" : "obj-31",
									"maxclass" : "newobj",
									"numinlets" : 0,
									"numoutlets" : 1,
									"outlettype" : [ "" ],
									"patching_rect" : [ 287.0, 241.0, 19.0, 22.0 ],
									"text" : "3"
								}

							}
, 							{
								"box" : 								{
									"id" : "obj-34",
									"maxclass" : "newobj",
									"numinlets" : 2,
									"numoutlets" : 3,
									"outlettype" : [ "", "", "" ],
									"patching_rect" : [ 222.0, 265.0, 84.0, 22.0 ],
									"text" : "go.onepole.hz"
								}

							}
, 							{
								"box" : 								{
									"id" : "obj-24",
									"maxclass" : "newobj",
									"numinlets" : 0,
									"numoutlets" : 1,
									"outlettype" : [ "" ],
									"patching_rect" : [ 267.0, 436.0, 168.0, 22.0 ],
									"text" : "param invert @min 0 @max 1"
								}

							}
, 							{
								"box" : 								{
									"id" : "obj-25",
									"maxclass" : "newobj",
									"numinlets" : 1,
									"numoutlets" : 1,
									"outlettype" : [ "" ],
									"patching_rect" : [ 267.0, 460.0, 66.0, 22.0 ],
									"text" : "switch -1 1"
								}

							}
, 							{
								"box" : 								{
									"id" : "obj-26",
									"maxclass" : "newobj",
									"numinlets" : 2,
									"numoutlets" : 1,
									"outlettype" : [ "" ],
									"patching_rect" : [ 222.0, 460.0, 36.0, 22.0 ],
									"text" : "*"
								}

							}
, 							{
								"box" : 								{
									"id" : "obj-23",
									"linecount" : 2,
									"maxclass" : "newobj",
									"numinlets" : 0,
									"numoutlets" : 1,
									"outlettype" : [ "" ],
									"patching_rect" : [ 483.0, 29.0, 115.0, 35.0 ],
									"text" : "param damping 0.5 @min 0 @max 1"
								}

							}
, 							{
								"box" : 								{
									"id" : "obj-21",
									"maxclass" : "newobj",
									"numinlets" : 2,
									"numoutlets" : 1,
									"outlettype" : [ "" ],
									"patching_rect" : [ 254.5, 145.0, 29.5, 22.0 ],
									"text" : "/"
								}

							}
, 							{
								"box" : 								{
									"id" : "obj-20",
									"maxclass" : "newobj",
									"numinlets" : 1,
									"numoutlets" : 2,
									"outlettype" : [ "", "" ],
									"patcher" : 									{
										"fileversion" : 1,
										"appversion" : 										{
											"major" : 8,
											"minor" : 3,
											"revision" : 0,
											"architecture" : "x64",
											"modernui" : 1
										}
,
										"classnamespace" : "dsp.gen",
										"rect" : [ 375.0, 267.0, 388.0, 294.0 ],
										"bglocked" : 0,
										"openinpresentation" : 0,
										"default_fontsize" : 12.0,
										"default_fontface" : 0,
										"default_fontname" : "Arial",
										"gridonopen" : 1,
										"gridsize" : [ 15.0, 15.0 ],
										"gridsnaponopen" : 1,
										"objectsnaponopen" : 1,
										"statusbarvisible" : 2,
										"toolbarvisible" : 1,
										"lefttoolbarpinned" : 0,
										"toptoolbarpinned" : 0,
										"righttoolbarpinned" : 0,
										"bottomtoolbarpinned" : 0,
										"toolbars_unpinned_last_save" : 0,
										"tallnewobj" : 0,
										"boxanimatetime" : 200,
										"enablehscroll" : 1,
										"enablevscroll" : 1,
										"devicewidth" : 0.0,
										"description" : "",
										"digest" : "",
										"tags" : "",
										"style" : "",
										"subpatcher_template" : "",
										"assistshowspatchername" : 0,
										"boxes" : [ 											{
												"box" : 												{
													"id" : "obj-4",
													"maxclass" : "newobj",
													"numinlets" : 1,
													"numoutlets" : 0,
													"patching_rect" : [ 168.5, 212.0, 136.0, 22.0 ],
													"text" : "out 2 allpass_coefficient"
												}

											}
, 											{
												"box" : 												{
													"id" : "obj-3",
													"maxclass" : "newobj",
													"numinlets" : 1,
													"numoutlets" : 0,
													"patching_rect" : [ 39.5, 212.0, 119.0, 22.0 ],
													"text" : "out 1 delay_samples"
												}

											}
, 											{
												"box" : 												{
													"id" : "obj-1",
													"maxclass" : "newobj",
													"numinlets" : 0,
													"numoutlets" : 1,
													"outlettype" : [ "" ],
													"patching_rect" : [ 39.5, 37.0, 111.0, 22.0 ],
													"text" : "in 1 delay_samples"
												}

											}
, 											{
												"box" : 												{
													"id" : "obj-8",
													"linecount" : 3,
													"maxclass" : "comment",
													"numinlets" : 1,
													"numoutlets" : 0,
													"patching_rect" : [ 227.5, 160.0, 78.0, 47.0 ],
													"text" : "allpass coefficient is (D-1)/(D+1)"
												}

											}
, 											{
												"box" : 												{
													"id" : "obj-7",
													"maxclass" : "comment",
													"numinlets" : 1,
													"numoutlets" : 0,
													"patching_rect" : [ 184.0, 74.0, 88.0, 20.0 ],
													"text" : "fractional part"
												}

											}
, 											{
												"box" : 												{
													"id" : "obj-5",
													"linecount" : 3,
													"maxclass" : "comment",
													"numinlets" : 1,
													"numoutlets" : 0,
													"patching_rect" : [ 50.0, 71.0, 122.0, 47.0 ],
													"text" : "delay time is broken into fractional part and whole remainder"
												}

											}
, 											{
												"box" : 												{
													"id" : "obj-2",
													"linecount" : 3,
													"maxclass" : "comment",
													"numinlets" : 1,
													"numoutlets" : 0,
													"patching_rect" : [ 72.0, 128.0, 91.0, 47.0 ],
													"text" : "remainder (always a whole number)"
												}

											}
, 											{
												"box" : 												{
													"id" : "obj-17",
													"maxclass" : "newobj",
													"numinlets" : 1,
													"numoutlets" : 1,
													"outlettype" : [ "" ],
													"patching_rect" : [ 199.5, 160.0, 26.0, 22.0 ],
													"text" : "+ 1"
												}

											}
, 											{
												"box" : 												{
													"id" : "obj-18",
													"maxclass" : "newobj",
													"numinlets" : 1,
													"numoutlets" : 1,
													"outlettype" : [ "" ],
													"patching_rect" : [ 168.5, 160.0, 23.0, 22.0 ],
													"text" : "- 1"
												}

											}
, 											{
												"box" : 												{
													"id" : "obj-12",
													"maxclass" : "newobj",
													"numinlets" : 2,
													"numoutlets" : 1,
													"outlettype" : [ "" ],
													"patching_rect" : [ 168.5, 184.0, 50.0, 22.0 ],
													"text" : "/"
												}

											}
, 											{
												"box" : 												{
													"id" : "obj-24",
													"maxclass" : "newobj",
													"numinlets" : 1,
													"numoutlets" : 1,
													"outlettype" : [ "" ],
													"patching_rect" : [ 168.5, 96.0, 75.0, 22.0 ],
													"text" : "wrap 0.3 1.3"
												}

											}
, 											{
												"box" : 												{
													"id" : "obj-14",
													"maxclass" : "newobj",
													"numinlets" : 2,
													"numoutlets" : 1,
													"outlettype" : [ "" ],
													"patching_rect" : [ 39.5, 128.0, 29.5, 22.0 ],
													"text" : "-"
												}

											}
 ],
										"lines" : [ 											{
												"patchline" : 												{
													"destination" : [ "obj-14", 0 ],
													"order" : 1,
													"source" : [ "obj-1", 0 ]
												}

											}
, 											{
												"patchline" : 												{
													"destination" : [ "obj-24", 0 ],
													"midpoints" : [ 49.0, 67.0, 178.0, 67.0 ],
													"order" : 0,
													"source" : [ "obj-1", 0 ]
												}

											}
, 											{
												"patchline" : 												{
													"destination" : [ "obj-4", 0 ],
													"source" : [ "obj-12", 0 ]
												}

											}
, 											{
												"patchline" : 												{
													"destination" : [ "obj-3", 0 ],
													"source" : [ "obj-14", 0 ]
												}

											}
, 											{
												"patchline" : 												{
													"destination" : [ "obj-12", 1 ],
													"source" : [ "obj-17", 0 ]
												}

											}
, 											{
												"patchline" : 												{
													"destination" : [ "obj-12", 0 ],
													"source" : [ "obj-18", 0 ]
												}

											}
, 											{
												"patchline" : 												{
													"destination" : [ "obj-14", 1 ],
													"midpoints" : [ 178.0, 122.5, 59.5, 122.5 ],
													"order" : 2,
													"source" : [ "obj-24", 0 ]
												}

											}
, 											{
												"patchline" : 												{
													"destination" : [ "obj-17", 0 ],
													"midpoints" : [ 178.0, 154.5, 209.0, 154.5 ],
													"order" : 0,
													"source" : [ "obj-24", 0 ]
												}

											}
, 											{
												"patchline" : 												{
													"destination" : [ "obj-18", 0 ],
													"order" : 1,
													"source" : [ "obj-24", 0 ]
												}

											}
 ]
									}
,
									"patching_rect" : [ 368.0, 306.0, 115.0, 22.0 ],
									"text" : "gen @title fractional"
								}

							}
, 							{
								"box" : 								{
									"id" : "obj-13",
									"maxclass" : "newobj",
									"numinlets" : 1,
									"numoutlets" : 1,
									"outlettype" : [ "" ],
									"patcher" : 									{
										"fileversion" : 1,
										"appversion" : 										{
											"major" : 8,
											"minor" : 3,
											"revision" : 0,
											"architecture" : "x64",
											"modernui" : 1
										}
,
										"classnamespace" : "dsp.gen",
										"rect" : [ 84.0, 131.0, 538.0, 444.0 ],
										"bglocked" : 0,
										"openinpresentation" : 0,
										"default_fontsize" : 12.0,
										"default_fontface" : 0,
										"default_fontname" : "Arial",
										"gridonopen" : 1,
										"gridsize" : [ 15.0, 15.0 ],
										"gridsnaponopen" : 1,
										"objectsnaponopen" : 1,
										"statusbarvisible" : 2,
										"toolbarvisible" : 1,
										"lefttoolbarpinned" : 0,
										"toptoolbarpinned" : 0,
										"righttoolbarpinned" : 0,
										"bottomtoolbarpinned" : 0,
										"toolbars_unpinned_last_save" : 0,
										"tallnewobj" : 0,
										"boxanimatetime" : 200,
										"enablehscroll" : 1,
										"enablevscroll" : 1,
										"devicewidth" : 0.0,
										"description" : "",
										"digest" : "",
										"tags" : "",
										"style" : "",
										"subpatcher_template" : "",
										"assistshowspatchername" : 0,
										"boxes" : [ 											{
												"box" : 												{
													"id" : "obj-2",
													"maxclass" : "newobj",
													"numinlets" : 1,
													"numoutlets" : 0,
													"patching_rect" : [ 103.0, 374.0, 35.0, 22.0 ],
													"text" : "out 1"
												}

											}
, 											{
												"box" : 												{
													"id" : "obj-1",
													"maxclass" : "newobj",
													"numinlets" : 0,
													"numoutlets" : 1,
													"outlettype" : [ "" ],
													"patching_rect" : [ 103.0, 78.0, 28.0, 22.0 ],
													"text" : "in 1"
												}

											}
, 											{
												"box" : 												{
													"id" : "obj-11",
													"linecount" : 2,
													"maxclass" : "newobj",
													"numinlets" : 0,
													"numoutlets" : 1,
													"outlettype" : [ "" ],
													"patching_rect" : [ 178.75, 216.0, 119.0, 35.0 ],
													"text" : "param nonlinear 0.1 @min 0 @max 1"
												}

											}
, 											{
												"box" : 												{
													"id" : "obj-15",
													"linecount" : 2,
													"maxclass" : "newobj",
													"numinlets" : 0,
													"numoutlets" : 1,
													"outlettype" : [ "" ],
													"patching_rect" : [ 388.0, 117.5, 102.0, 35.0 ],
													"text" : "param linear 0.9 @min 0 @max 1"
												}

											}
, 											{
												"box" : 												{
													"id" : "obj-16",
													"maxclass" : "comment",
													"numinlets" : 1,
													"numoutlets" : 0,
													"patching_rect" : [ 120.0, 189.5, 151.0, 20.0 ],
													"text" : "remainder is nonlinear part"
												}

											}
, 											{
												"box" : 												{
													"id" : "obj-14",
													"linecount" : 5,
													"maxclass" : "comment",
													"numinlets" : 1,
													"numoutlets" : 0,
													"patching_rect" : [ 354.0, 206.5, 93.0, 74.0 ],
													"text" : "linear part, within +/- linear range, passes through unchanged"
												}

											}
, 											{
												"box" : 												{
													"id" : "obj-23",
													"maxclass" : "comment",
													"numinlets" : 1,
													"numoutlets" : 0,
													"patching_rect" : [ 178.75, 361.4375, 182.0, 20.0 ],
													"text" : "join the two parts together again"
												}

											}
, 											{
												"box" : 												{
													"id" : "obj-25",
													"linecount" : 3,
													"maxclass" : "comment",
													"numinlets" : 1,
													"numoutlets" : 0,
													"patching_rect" : [ 188.75, 253.0, 113.0, 47.0 ],
													"text" : "scaled and shaped to fit within +/- nonlinear range"
												}

											}
, 											{
												"box" : 												{
													"id" : "obj-27",
													"maxclass" : "newobj",
													"numinlets" : 2,
													"numoutlets" : 1,
													"outlettype" : [ "" ],
													"patching_rect" : [ 103.0, 310.0, 29.5, 22.0 ],
													"text" : "*"
												}

											}
, 											{
												"box" : 												{
													"id" : "obj-28",
													"maxclass" : "newobj",
													"numinlets" : 2,
													"numoutlets" : 1,
													"outlettype" : [ "" ],
													"patching_rect" : [ 103.0, 258.5, 29.5, 22.0 ],
													"text" : "/"
												}

											}
, 											{
												"box" : 												{
													"id" : "obj-29",
													"maxclass" : "newobj",
													"numinlets" : 1,
													"numoutlets" : 1,
													"outlettype" : [ "" ],
													"patching_rect" : [ 364.0, 158.5, 29.0, 22.0 ],
													"text" : "neg"
												}

											}
, 											{
												"box" : 												{
													"id" : "obj-30",
													"maxclass" : "newobj",
													"numinlets" : 2,
													"numoutlets" : 1,
													"outlettype" : [ "" ],
													"patching_rect" : [ 103.0, 339.4375, 257.0, 22.0 ],
													"text" : "+"
												}

											}
, 											{
												"box" : 												{
													"id" : "obj-32",
													"maxclass" : "newobj",
													"numinlets" : 1,
													"numoutlets" : 1,
													"outlettype" : [ "" ],
													"patching_rect" : [ 103.0, 283.09375, 73.0, 22.0 ],
													"text" : "go.sigmoid2"
												}

											}
, 											{
												"box" : 												{
													"id" : "obj-51",
													"linecount" : 3,
													"maxclass" : "comment",
													"numinlets" : 1,
													"numoutlets" : 0,
													"patching_rect" : [ 120.0, 117.5, 165.0, 47.0 ],
													"text" : "Split the feedback signal into a linear portion up to certain limits, and nonlinear beyond"
												}

											}
, 											{
												"box" : 												{
													"id" : "obj-41",
													"maxclass" : "newobj",
													"numinlets" : 2,
													"numoutlets" : 1,
													"outlettype" : [ "" ],
													"patching_rect" : [ 103.0, 214.5, 35.0, 22.0 ],
													"text" : "-"
												}

											}
, 											{
												"box" : 												{
													"id" : "obj-38",
													"maxclass" : "newobj",
													"numinlets" : 3,
													"numoutlets" : 1,
													"outlettype" : [ "" ],
													"patching_rect" : [ 341.0, 182.5, 66.0, 22.0 ],
													"text" : "clip"
												}

											}
 ],
										"lines" : [ 											{
												"patchline" : 												{
													"destination" : [ "obj-38", 0 ],
													"midpoints" : [ 112.5, 110.75, 350.5, 110.75 ],
													"order" : 0,
													"source" : [ "obj-1", 0 ]
												}

											}
, 											{
												"patchline" : 												{
													"destination" : [ "obj-41", 0 ],
													"order" : 1,
													"source" : [ "obj-1", 0 ]
												}

											}
, 											{
												"patchline" : 												{
													"destination" : [ "obj-27", 1 ],
													"midpoints" : [ 188.25, 308.0, 123.0, 308.0 ],
													"order" : 0,
													"source" : [ "obj-11", 0 ]
												}

											}
, 											{
												"patchline" : 												{
													"destination" : [ "obj-28", 1 ],
													"midpoints" : [ 188.25, 254.25, 123.0, 254.25 ],
													"order" : 1,
													"source" : [ "obj-11", 0 ]
												}

											}
, 											{
												"patchline" : 												{
													"destination" : [ "obj-29", 0 ],
													"order" : 1,
													"source" : [ "obj-15", 0 ]
												}

											}
, 											{
												"patchline" : 												{
													"destination" : [ "obj-38", 2 ],
													"order" : 0,
													"source" : [ "obj-15", 0 ]
												}

											}
, 											{
												"patchline" : 												{
													"destination" : [ "obj-30", 0 ],
													"source" : [ "obj-27", 0 ]
												}

											}
, 											{
												"patchline" : 												{
													"destination" : [ "obj-32", 0 ],
													"source" : [ "obj-28", 0 ]
												}

											}
, 											{
												"patchline" : 												{
													"destination" : [ "obj-38", 1 ],
													"source" : [ "obj-29", 0 ]
												}

											}
, 											{
												"patchline" : 												{
													"destination" : [ "obj-2", 0 ],
													"source" : [ "obj-30", 0 ]
												}

											}
, 											{
												"patchline" : 												{
													"destination" : [ "obj-27", 0 ],
													"source" : [ "obj-32", 0 ]
												}

											}
, 											{
												"patchline" : 												{
													"destination" : [ "obj-30", 1 ],
													"order" : 0,
													"source" : [ "obj-38", 0 ]
												}

											}
, 											{
												"patchline" : 												{
													"destination" : [ "obj-41", 1 ],
													"midpoints" : [ 350.5, 209.0, 128.5, 209.0 ],
													"order" : 1,
													"source" : [ "obj-38", 0 ]
												}

											}
, 											{
												"patchline" : 												{
													"destination" : [ "obj-28", 0 ],
													"source" : [ "obj-41", 0 ]
												}

											}
 ]
									}
,
									"patching_rect" : [ 222.0, 297.0, 109.0, 22.0 ],
									"text" : "gen @title saturate"
								}

							}
, 							{
								"box" : 								{
									"id" : "obj-19",
									"maxclass" : "newobj",
									"numinlets" : 2,
									"numoutlets" : 2,
									"outlettype" : [ "", "" ],
									"patching_rect" : [ 222.0, 400.0, 280.0, 22.0 ],
									"text" : "go.onepole.basic"
								}

							}
, 							{
								"box" : 								{
									"id" : "obj-18",
									"linecount" : 2,
									"maxclass" : "newobj",
									"numinlets" : 2,
									"numoutlets" : 1,
									"outlettype" : [ "" ],
									"patcher" : 									{
										"fileversion" : 1,
										"appversion" : 										{
											"major" : 8,
											"minor" : 3,
											"revision" : 0,
											"architecture" : "x64",
											"modernui" : 1
										}
,
										"classnamespace" : "dsp.gen",
										"rect" : [ 144.0, 87.0, 303.0, 293.0 ],
										"bglocked" : 0,
										"openinpresentation" : 0,
										"default_fontsize" : 12.0,
										"default_fontface" : 0,
										"default_fontname" : "Arial",
										"gridonopen" : 1,
										"gridsize" : [ 15.0, 15.0 ],
										"gridsnaponopen" : 1,
										"objectsnaponopen" : 1,
										"statusbarvisible" : 2,
										"toolbarvisible" : 1,
										"lefttoolbarpinned" : 0,
										"toptoolbarpinned" : 0,
										"righttoolbarpinned" : 0,
										"bottomtoolbarpinned" : 0,
										"toolbars_unpinned_last_save" : 0,
										"tallnewobj" : 0,
										"boxanimatetime" : 200,
										"enablehscroll" : 1,
										"enablevscroll" : 1,
										"devicewidth" : 0.0,
										"description" : "",
										"digest" : "",
										"tags" : "",
										"style" : "",
										"subpatcher_template" : "",
										"assistshowspatchername" : 0,
										"boxes" : [ 											{
												"box" : 												{
													"id" : "obj-11",
													"maxclass" : "newobj",
													"numinlets" : 2,
													"numoutlets" : 1,
													"outlettype" : [ "" ],
													"patching_rect" : [ 48.5, 182.0, 29.5, 22.0 ],
													"text" : "+"
												}

											}
, 											{
												"box" : 												{
													"id" : "obj-10",
													"maxclass" : "newobj",
													"numinlets" : 1,
													"numoutlets" : 1,
													"outlettype" : [ "" ],
													"patching_rect" : [ 68.0, 158.0, 23.0, 22.0 ],
													"text" : "* 2"
												}

											}
, 											{
												"box" : 												{
													"id" : "obj-9",
													"maxclass" : "newobj",
													"numinlets" : 1,
													"numoutlets" : 1,
													"outlettype" : [ "" ],
													"patching_rect" : [ 68.0, 132.0, 25.0, 22.0 ],
													"text" : "log"
												}

											}
, 											{
												"box" : 												{
													"id" : "obj-8",
													"maxclass" : "newobj",
													"numinlets" : 1,
													"numoutlets" : 1,
													"outlettype" : [ "" ],
													"patching_rect" : [ 68.0, 105.0, 26.0, 22.0 ],
													"text" : "!- 1"
												}

											}
, 											{
												"box" : 												{
													"id" : "obj-7",
													"maxclass" : "newobj",
													"numinlets" : 1,
													"numoutlets" : 0,
													"patching_rect" : [ 48.5, 209.0, 119.0, 22.0 ],
													"text" : "out 1 adjusted_delay"
												}

											}
, 											{
												"box" : 												{
													"id" : "obj-1",
													"maxclass" : "newobj",
													"numinlets" : 0,
													"numoutlets" : 1,
													"outlettype" : [ "" ],
													"patching_rect" : [ 185.0, 55.0, 77.0, 22.0 ],
													"text" : "in 2 damping"
												}

											}
, 											{
												"box" : 												{
													"id" : "obj-2",
													"maxclass" : "newobj",
													"numinlets" : 0,
													"numoutlets" : 1,
													"outlettype" : [ "" ],
													"patching_rect" : [ 48.5, 55.0, 111.0, 22.0 ],
													"text" : "in 1 delay_samples"
												}

											}
 ],
										"lines" : [ 											{
												"patchline" : 												{
													"destination" : [ "obj-8", 0 ],
													"source" : [ "obj-1", 0 ]
												}

											}
, 											{
												"patchline" : 												{
													"destination" : [ "obj-11", 1 ],
													"source" : [ "obj-10", 0 ]
												}

											}
, 											{
												"patchline" : 												{
													"destination" : [ "obj-7", 0 ],
													"source" : [ "obj-11", 0 ]
												}

											}
, 											{
												"patchline" : 												{
													"destination" : [ "obj-11", 0 ],
													"source" : [ "obj-2", 0 ]
												}

											}
, 											{
												"patchline" : 												{
													"destination" : [ "obj-9", 0 ],
													"source" : [ "obj-8", 0 ]
												}

											}
, 											{
												"patchline" : 												{
													"destination" : [ "obj-10", 0 ],
													"source" : [ "obj-9", 0 ]
												}

											}
 ]
									}
,
									"patching_rect" : [ 368.0, 269.0, 102.0, 35.0 ],
									"text" : "gen @title damping_offset"
								}

							}
, 							{
								"box" : 								{
									"id" : "obj-10",
									"maxclass" : "newobj",
									"numinlets" : 2,
									"numoutlets" : 1,
									"outlettype" : [ "" ],
									"patching_rect" : [ 222.0, 365.0, 261.0, 22.0 ],
									"text" : "go.allpass"
								}

							}
, 							{
								"box" : 								{
									"id" : "obj-9",
									"maxclass" : "newobj",
									"numinlets" : 2,
									"numoutlets" : 1,
									"outlettype" : [ "" ],
									"patching_rect" : [ 222.0, 229.0, 36.5, 22.0 ],
									"text" : "+"
								}

							}
, 							{
								"box" : 								{
									"id" : "obj-8",
									"maxclass" : "newobj",
									"numinlets" : 1,
									"numoutlets" : 1,
									"outlettype" : [ "" ],
									"patching_rect" : [ 254.5, 173.0, 25.0, 22.0 ],
									"text" : "t60"
								}

							}
, 							{
								"box" : 								{
									"id" : "obj-6",
									"maxclass" : "newobj",
									"numinlets" : 2,
									"numoutlets" : 1,
									"outlettype" : [ "" ],
									"patching_rect" : [ 239.5, 199.0, 34.0, 22.0 ],
									"text" : "*"
								}

							}
, 							{
								"box" : 								{
									"fontsize" : 18.0,
									"id" : "obj-7",
									"maxclass" : "newobj",
									"numinlets" : 2,
									"numoutlets" : 1,
									"outlettype" : [ "" ],
									"patching_rect" : [ 222.0, 332.0, 165.0, 29.0 ],
									"text" : "delay @interp none"
								}

							}
, 							{
								"box" : 								{
									"id" : "obj-1",
									"maxclass" : "newobj",
									"numinlets" : 0,
									"numoutlets" : 1,
									"outlettype" : [ "" ],
									"patching_rect" : [ 69.5, 49.0, 65.0, 22.0 ],
									"text" : "in 1 trigger"
								}

							}
, 							{
								"box" : 								{
									"id" : "obj-4",
									"maxclass" : "newobj",
									"numinlets" : 1,
									"numoutlets" : 0,
									"patching_rect" : [ 222.0, 504.0, 89.0, 22.0 ],
									"text" : "out 1 resonator"
								}

							}
 ],
						"lines" : [ 							{
								"patchline" : 								{
									"destination" : [ "obj-43", 0 ],
									"source" : [ "obj-1", 0 ]
								}

							}
, 							{
								"patchline" : 								{
									"color" : [ 0.0, 0.0, 0.0, 1.0 ],
									"destination" : [ "obj-19", 0 ],
									"source" : [ "obj-10", 0 ]
								}

							}
, 							{
								"patchline" : 								{
									"color" : [ 0.0, 0.0, 0.0, 1.0 ],
									"destination" : [ "obj-7", 0 ],
									"source" : [ "obj-13", 0 ]
								}

							}
, 							{
								"patchline" : 								{
									"destination" : [ "obj-20", 0 ],
									"source" : [ "obj-18", 0 ]
								}

							}
, 							{
								"patchline" : 								{
									"color" : [ 0.0, 0.0, 0.0, 1.0 ],
									"destination" : [ "obj-26", 0 ],
									"source" : [ "obj-19", 0 ]
								}

							}
, 							{
								"patchline" : 								{
									"destination" : [ "obj-10", 1 ],
									"source" : [ "obj-20", 1 ]
								}

							}
, 							{
								"patchline" : 								{
									"destination" : [ "obj-7", 1 ],
									"source" : [ "obj-20", 0 ]
								}

							}
, 							{
								"patchline" : 								{
									"destination" : [ "obj-8", 0 ],
									"source" : [ "obj-21", 0 ]
								}

							}
, 							{
								"patchline" : 								{
									"destination" : [ "obj-18", 1 ],
									"midpoints" : [ 492.5, 266.0, 460.5, 266.0 ],
									"order" : 1,
									"source" : [ "obj-23", 0 ]
								}

							}
, 							{
								"patchline" : 								{
									"destination" : [ "obj-19", 1 ],
									"order" : 0,
									"source" : [ "obj-23", 0 ]
								}

							}
, 							{
								"patchline" : 								{
									"destination" : [ "obj-25", 0 ],
									"source" : [ "obj-24", 0 ]
								}

							}
, 							{
								"patchline" : 								{
									"destination" : [ "obj-26", 1 ],
									"source" : [ "obj-25", 0 ]
								}

							}
, 							{
								"patchline" : 								{
									"destination" : [ "obj-4", 0 ],
									"order" : 1,
									"source" : [ "obj-26", 0 ]
								}

							}
, 							{
								"patchline" : 								{
									"color" : [ 0.0, 0.0, 0.0, 1.0 ],
									"destination" : [ "obj-6", 0 ],
									"midpoints" : [ 231.5, 489.0, 133.5, 489.0, 133.5, 193.0, 249.0, 193.0 ],
									"order" : 0,
									"source" : [ "obj-26", 0 ]
								}

							}
, 							{
								"patchline" : 								{
									"destination" : [ "obj-34", 1 ],
									"source" : [ "obj-31", 0 ]
								}

							}
, 							{
								"patchline" : 								{
									"color" : [ 0.0, 0.0, 0.0, 1.0 ],
									"destination" : [ "obj-13", 0 ],
									"midpoints" : [ 264.0, 290.5, 231.5, 290.5 ],
									"source" : [ "obj-34", 1 ]
								}

							}
, 							{
								"patchline" : 								{
									"destination" : [ "obj-60", 0 ],
									"source" : [ "obj-37", 0 ]
								}

							}
, 							{
								"patchline" : 								{
									"destination" : [ "obj-37", 0 ],
									"source" : [ "obj-38", 0 ]
								}

							}
, 							{
								"patchline" : 								{
									"destination" : [ "obj-61", 0 ],
									"source" : [ "obj-40", 0 ]
								}

							}
, 							{
								"patchline" : 								{
									"destination" : [ "obj-18", 0 ],
									"order" : 0,
									"source" : [ "obj-41", 0 ]
								}

							}
, 							{
								"patchline" : 								{
									"destination" : [ "obj-21", 1 ],
									"midpoints" : [ 377.5, 139.5, 274.5, 139.5 ],
									"order" : 1,
									"source" : [ "obj-41", 0 ]
								}

							}
, 							{
								"patchline" : 								{
									"destination" : [ "obj-40", 0 ],
									"source" : [ "obj-42", 0 ]
								}

							}
, 							{
								"patchline" : 								{
									"destination" : [ "obj-44", 0 ],
									"source" : [ "obj-43", 0 ]
								}

							}
, 							{
								"patchline" : 								{
									"destination" : [ "obj-45", 0 ],
									"source" : [ "obj-44", 0 ]
								}

							}
, 							{
								"patchline" : 								{
									"destination" : [ "obj-47", 0 ],
									"source" : [ "obj-45", 0 ]
								}

							}
, 							{
								"patchline" : 								{
									"destination" : [ "obj-45", 1 ],
									"source" : [ "obj-46", 0 ]
								}

							}
, 							{
								"patchline" : 								{
									"destination" : [ "obj-39", 0 ],
									"order" : 1,
									"source" : [ "obj-47", 0 ]
								}

							}
, 							{
								"patchline" : 								{
									"destination" : [ "obj-9", 0 ],
									"midpoints" : [ 78.5, 221.0, 231.5, 221.0 ],
									"order" : 0,
									"source" : [ "obj-47", 0 ]
								}

							}
, 							{
								"patchline" : 								{
									"destination" : [ "obj-47", 1 ],
									"source" : [ "obj-48", 0 ]
								}

							}
, 							{
								"patchline" : 								{
									"color" : [ 0.0, 0.0, 0.0, 1.0 ],
									"destination" : [ "obj-9", 1 ],
									"source" : [ "obj-6", 0 ]
								}

							}
, 							{
								"patchline" : 								{
									"destination" : [ "obj-21", 0 ],
									"source" : [ "obj-60", 0 ]
								}

							}
, 							{
								"patchline" : 								{
									"destination" : [ "obj-41", 0 ],
									"source" : [ "obj-61", 0 ]
								}

							}
, 							{
								"patchline" : 								{
									"color" : [ 0.0, 0.0, 0.0, 1.0 ],
									"destination" : [ "obj-10", 0 ],
									"source" : [ "obj-7", 0 ]
								}

							}
, 							{
								"patchline" : 								{
									"destination" : [ "obj-6", 1 ],
									"source" : [ "obj-8", 0 ]
								}

							}
, 							{
								"patchline" : 								{
									"color" : [ 0.0, 0.0, 0.0, 1.0 ],
									"destination" : [ "obj-34", 0 ],
									"source" : [ "obj-9", 0 ]
								}

							}
 ],
						"bgcolor" : [ 1.0, 1.0, 1.0, 1.0 ]
					}
,
					"patching_rect" : [ 56.0, 386.0, 162.0, 22.0 ],
					"text" : "gen~ @title string-everything"
				}

			}
, 			{
				"box" : 				{
					"attr" : "damping",
					"id" : "obj-6",
					"maxclass" : "attrui",
					"numinlets" : 1,
					"numoutlets" : 1,
					"outlettype" : [ "" ],
					"parameter_enable" : 0,
					"patching_rect" : [ 217.0, 281.0, 150.0, 22.0 ]
				}

			}
, 			{
				"box" : 				{
					"attr" : "decay_seconds",
					"id" : "obj-7",
					"maxclass" : "attrui",
					"numinlets" : 1,
					"numoutlets" : 1,
					"outlettype" : [ "" ],
					"parameter_enable" : 0,
					"patching_rect" : [ 217.0, 309.0, 150.0, 22.0 ]
				}

			}
, 			{
				"box" : 				{
					"attr" : "invert",
					"displaymode" : 8,
					"id" : "obj-8",
					"maxclass" : "attrui",
					"numinlets" : 1,
					"numoutlets" : 1,
					"outlettype" : [ "" ],
					"parameter_enable" : 0,
					"patching_rect" : [ 217.0, 338.0, 150.0, 22.0 ]
				}

			}
, 			{
				"box" : 				{
					"attr" : "midinote",
					"id" : "obj-9",
					"maxclass" : "attrui",
					"numinlets" : 1,
					"numoutlets" : 1,
					"outlettype" : [ "" ],
					"parameter_enable" : 0,
					"patching_rect" : [ 56.0, 281.0, 150.0, 22.0 ]
				}

			}
 ],
		"lines" : [ 			{
				"patchline" : 				{
					"destination" : [ "obj-11", 0 ],
					"source" : [ "obj-1", 0 ]
				}

			}
, 			{
				"patchline" : 				{
					"destination" : [ "obj-23", 0 ],
					"source" : [ "obj-10", 0 ]
				}

			}
, 			{
				"patchline" : 				{
					"destination" : [ "obj-2", 0 ],
					"source" : [ "obj-11", 0 ]
				}

			}
, 			{
				"patchline" : 				{
					"destination" : [ "obj-4", 0 ],
					"midpoints" : [ 382.5, 372.5, 65.5, 372.5 ],
					"source" : [ "obj-12", 0 ]
				}

			}
, 			{
				"patchline" : 				{
					"destination" : [ "obj-10", 0 ],
					"source" : [ "obj-18", 0 ]
				}

			}
, 			{
				"patchline" : 				{
					"destination" : [ "obj-18", 0 ],
					"source" : [ "obj-2", 0 ]
				}

			}
, 			{
				"patchline" : 				{
					"destination" : [ "obj-12", 0 ],
					"source" : [ "obj-22", 0 ]
				}

			}
, 			{
				"patchline" : 				{
					"destination" : [ "obj-5", 0 ],
					"source" : [ "obj-23", 0 ]
				}

			}
, 			{
				"patchline" : 				{
					"destination" : [ "obj-11", 1 ],
					"source" : [ "obj-30", 0 ]
				}

			}
, 			{
				"patchline" : 				{
					"destination" : [ "obj-14", 1 ],
					"source" : [ "obj-35", 1 ]
				}

			}
, 			{
				"patchline" : 				{
					"destination" : [ "obj-14", 0 ],
					"source" : [ "obj-35", 0 ]
				}

			}
, 			{
				"patchline" : 				{
					"destination" : [ "obj-13", 0 ],
					"order" : 1,
					"source" : [ "obj-4", 0 ]
				}

			}
, 			{
				"patchline" : 				{
					"destination" : [ "obj-15", 0 ],
					"order" : 0,
					"source" : [ "obj-4", 0 ]
				}

			}
, 			{
				"patchline" : 				{
					"destination" : [ "obj-35", 1 ],
					"order" : 2,
					"source" : [ "obj-4", 0 ]
				}

			}
, 			{
				"patchline" : 				{
					"destination" : [ "obj-35", 0 ],
					"order" : 3,
					"source" : [ "obj-4", 0 ]
				}

			}
, 			{
				"patchline" : 				{
					"destination" : [ "obj-22", 0 ],
					"source" : [ "obj-5", 1 ]
				}

			}
, 			{
				"patchline" : 				{
					"destination" : [ "obj-9", 0 ],
					"source" : [ "obj-5", 0 ]
				}

			}
, 			{
				"patchline" : 				{
					"destination" : [ "obj-4", 0 ],
					"midpoints" : [ 226.5, 374.0, 65.5, 374.0 ],
					"source" : [ "obj-6", 0 ]
				}

			}
, 			{
				"patchline" : 				{
					"destination" : [ "obj-4", 0 ],
					"midpoints" : [ 226.5, 373.0, 65.5, 373.0 ],
					"source" : [ "obj-7", 0 ]
				}

			}
, 			{
				"patchline" : 				{
					"destination" : [ "obj-4", 0 ],
					"midpoints" : [ 226.5, 372.5, 65.5, 372.5 ],
					"source" : [ "obj-8", 0 ]
				}

			}
, 			{
				"patchline" : 				{
					"destination" : [ "obj-4", 0 ],
					"source" : [ "obj-9", 0 ]
				}

			}
 ],
		"parameters" : 		{
			"obj-35" : [ "live.gain~[1]", "live.gain~", 0 ],
			"parameterbanks" : 			{
				"0" : 				{
					"index" : 0,
					"name" : "",
					"parameters" : [ "-", "-", "-", "-", "-", "-", "-", "-" ]
				}

			}
,
			"inherited_shortname" : 1
		}
,
		"dependency_cache" : [ 			{
				"name" : "go.allpass.gendsp",
				"bootpath" : "~/Documents/Max 8/Packages/genbook/patchers",
				"patcherrelativepath" : "../../../patchers",
				"type" : "gDSP",
				"implicit" : 1
			}
, 			{
				"name" : "go.onepole.basic.gendsp",
				"bootpath" : "~/Documents/Max 8/Packages/genbook/patchers",
				"patcherrelativepath" : "../../../patchers",
				"type" : "gDSP",
				"implicit" : 1
			}
, 			{
				"name" : "go.onepole.hz.gendsp",
				"bootpath" : "~/Documents/Max 8/Packages/genbook/patchers",
				"patcherrelativepath" : "../../../patchers",
				"type" : "gDSP",
				"implicit" : 1
			}
, 			{
				"name" : "go.sigmoid2.gendsp",
				"bootpath" : "~/Documents/Max 8/Packages/genbook/patchers",
				"patcherrelativepath" : "../../../patchers",
				"type" : "gDSP",
				"implicit" : 1
			}
, 			{
				"name" : "go.zerox.gendsp",
				"bootpath" : "~/Documents/Max 8/Packages/genbook/patchers",
				"patcherrelativepath" : "../../../patchers",
				"type" : "gDSP",
				"implicit" : 1
			}
 ],
		"autosave" : 0
	}

}
